<svg width="1780" height="1780" viewBox="0 0 1780 1780" fill="none" xmlns="http://www.w3.org/2000/svg">
<path fill-rule="evenodd" clip-rule="evenodd" d="M1085 194C1085 301.144 998.142 388 890.999 388C783.855 388 696.999 301.144 696.999 194C696.999 86.8568 783.855 0 890.999 0C998.142 0 1085 86.8568 1085 194ZM1085 1586C1085 1693.14 998.142 1780 890.999 1780C783.855 1780 696.999 1693.14 696.999 1586C696.999 1478.86 783.855 1392 890.999 1392C998.142 1392 1085 1478.86 1085 1586ZM1586 1084C1693.14 1084 1780 997.143 1780 890C1780 782.857 1693.14 696 1586 696C1478.85 696 1392 782.857 1392 890C1392 997.143 1478.85 1084 1586 1084ZM388 890C388 997.143 301.143 1084 194 1084C86.8568 1084 0 997.143 0 890C0 782.857 86.8568 696 194 696C301.143 696 388 782.857 388 890ZM1592 633.003C1672.08 633.003 1737 568.084 1737 488.003C1737 407.921 1672.08 343.002 1592 343.002C1511.92 343.002 1447 407.921 1447 488.003C1447 568.084 1511.92 633.003 1592 633.003ZM1447 194.002C1447 274.084 1382.08 339.003 1302 339.003C1221.92 339.003 1157 274.084 1157 194.002C1157 113.921 1221.92 49.0022 1302 49.0022C1382.08 49.0022 1447 113.921 1447 194.002ZM485.999 339.003C566.08 339.003 630.999 274.084 630.999 194.002C630.999 113.921 566.08 49.0022 485.999 49.0022C405.917 49.0022 340.999 113.921 340.999 194.002C340.999 274.084 405.917 339.003 485.999 339.003ZM630.999 1588C630.999 1668.08 566.08 1733 485.999 1733C405.917 1733 340.999 1668.08 340.999 1588C340.999 1507.92 405.917 1443 485.999 1443C566.08 1443 630.999 1507.92 630.999 1588ZM1302 1731C1382.08 1731 1447 1666.08 1447 1586C1447 1505.92 1382.08 1441 1302 1441C1221.92 1441 1157 1505.92 1157 1586C1157 1666.08 1221.92 1731 1302 1731ZM1737 1298C1737 1378.08 1672.08 1443 1592 1443C1511.92 1443 1447 1378.08 1447 1298C1447 1217.92 1511.92 1153 1592 1153C1672.08 1153 1737 1217.92 1737 1298ZM194.002 1441C274.083 1441 339.002 1376.08 339.002 1296C339.002 1215.92 274.083 1151 194.002 1151C113.921 1151 49.002 1215.92 49.002 1296C49.002 1376.08 113.921 1441 194.002 1441ZM339.002 484C339.002 564.081 274.083 629 194.002 629C113.921 629 49.002 564.081 49.002 484C49.002 403.919 113.921 339 194.002 339C274.083 339 339.002 403.919 339.002 484ZM599.004 1035C679.086 1035 744.004 970.084 744.004 890.002C744.004 809.921 679.086 745.002 599.004 745.002C518.923 745.002 454.004 809.921 454.004 890.002C454.004 970.084 518.923 1035 599.004 1035ZM1034 600C1034 680.081 969.083 745 889.002 745C808.921 745 744.002 680.081 744.002 600C744.002 519.919 808.921 455 889.002 455C969.083 455 1034 519.919 1034 600ZM1179 1035C1259.08 1035 1324 970.084 1324 890.002C1324 809.921 1259.08 745.002 1179 745.002C1098.92 745.002 1034 809.921 1034 890.002C1034 970.084 1098.92 1035 1179 1035ZM1034 1180C1034 1260.08 969.083 1325 889.002 1325C808.921 1325 744.002 1260.08 744.002 1180C744.002 1099.92 808.921 1035 889.002 1035C969.083 1035 1034 1099.92 1034 1180ZM184.001 104.001C139.819 104.001 104.001 139.819 104.001 184.002V204.002C104.001 248.184 139.819 284.002 184.001 284.002H204.001C248.184 284.002 284.001 248.184 284.001 204.002V184.001C284.001 139.819 248.184 104.001 204.001 104.001H184.001ZM454.004 532.001C454.004 487.819 489.822 452.001 534.004 452.001H554.004C598.187 452.001 634.004 487.819 634.004 532.001V552.002C634.004 596.184 598.187 632.002 554.004 632.002H534.004C489.822 632.002 454.004 596.184 454.004 552.002V532.001ZM1576 104.001C1531.82 104.001 1496 139.819 1496 184.002V204.002C1496 248.184 1531.82 284.002 1576 284.002H1596C1640.18 284.002 1676 248.184 1676 204.002V184.001C1676 139.819 1640.18 104.001 1596 104.001H1576ZM1149.99 535C1149.99 490.817 1185.81 455 1229.99 455H1249.99C1294.18 455 1329.99 490.817 1329.99 535V555C1329.99 599.183 1294.18 635 1249.99 635H1229.99C1185.81 635 1149.99 599.183 1149.99 555V535ZM881 800.001C836.817 800.001 801 835.819 801 880.001V900.001C801 944.184 836.817 980.001 881 980.001H901C945.183 980.001 981 944.184 981 900.001V880.001C981 835.818 945.183 800.001 901 800.001H881ZM454.004 1225C454.004 1180.82 489.822 1145 534.004 1145H554.004C598.187 1145 634.004 1180.82 634.004 1225V1245C634.004 1289.19 598.187 1325 554.004 1325H534.004C489.822 1325 454.004 1289.19 454.004 1245V1225ZM1229 1145C1184.82 1145 1149 1180.82 1149 1225V1245C1149 1289.19 1184.82 1325 1229 1325H1249C1293.19 1325 1329 1289.19 1329 1245V1225C1329 1180.82 1293.19 1145 1249 1145H1229ZM104.001 1578C104.001 1533.82 139.819 1498 184.001 1498H204.001C248.184 1498 284.001 1533.82 284.001 1578V1598C284.001 1642.18 248.184 1678 204.001 1678H184.001C139.819 1678 104.001 1642.18 104.001 1598V1578ZM1576 1498C1531.82 1498 1496 1533.82 1496 1578V1598C1496 1642.18 1531.82 1678 1576 1678H1596C1640.18 1678 1676 1642.18 1676 1598V1578C1676 1533.82 1640.18 1498 1596 1498H1576Z" fill="url(#paint0_linear_45_216)"/>
<defs>
<linearGradient id="paint0_linear_45_216" x1="889.999" y1="0" x2="889.999" y2="1780" gradientUnits="userSpaceOnUse">
<stop offset="0.00520833" stop-color="#15EA54"/>
<stop offset="0.359375" stop-color="#0AE0EB" stop-opacity="0.76"/>
<stop offset="0.666667" stop-color="#4887DD" stop-opacity="0.9008"/>
<stop offset="1" stop-color="#D080D9"/>
</linearGradient>
</defs>
</svg>
