<svg width="1780" height="1780" viewBox="0 0 1780 1780" fill="none" xmlns="http://www.w3.org/2000/svg">
<path fill-rule="evenodd" clip-rule="evenodd" d="M1085 194C1085 301.143 998.143 388 891 388C783.857 388 697 301.143 697 194C697 86.8568 783.857 0 891 0C998.143 0 1085 86.8568 1085 194ZM1085 1586C1085 1693.14 998.143 1780 891 1780C783.857 1780 697 1693.14 697 1586C697 1478.86 783.857 1392 891 1392C998.143 1392 1085 1478.86 1085 1586ZM1586 1084C1693.14 1084 1780 997.143 1780 890C1780 782.857 1693.14 696 1586 696C1478.86 696 1392 782.857 1392 890C1392 997.143 1478.86 1084 1586 1084ZM388 890C388 997.143 301.143 1084 194 1084C86.8568 1084 0 997.143 0 890C0 782.857 86.8568 696 194 696C301.143 696 388 782.857 388 890ZM1592 633C1672.08 633 1737 568.081 1737 488C1737 407.919 1672.08 343 1592 343C1511.92 343 1447 407.919 1447 488C1447 568.081 1511.92 633 1592 633ZM1447 194C1447 274.081 1382.08 339 1302 339C1221.92 339 1157 274.081 1157 194C1157 113.919 1221.92 49 1302 49C1382.08 49 1447 113.919 1447 194ZM486 339C566.081 339 631 274.081 631 194C631 113.919 566.081 49 486 49C405.919 49 341 113.919 341 194C341 274.081 405.919 339 486 339ZM631 1588C631 1668.08 566.081 1733 486 1733C405.919 1733 341 1668.08 341 1588C341 1507.92 405.919 1443 486 1443C566.081 1443 631 1507.92 631 1588ZM1302 1731C1382.08 1731 1447 1666.08 1447 1586C1447 1505.92 1382.08 1441 1302 1441C1221.92 1441 1157 1505.92 1157 1586C1157 1666.08 1221.92 1731 1302 1731ZM1737 1298C1737 1378.08 1672.08 1443 1592 1443C1511.92 1443 1447 1378.08 1447 1298C1447 1217.92 1511.92 1153 1592 1153C1672.08 1153 1737 1217.92 1737 1298ZM194 1441C274.081 1441 339 1376.08 339 1296C339 1215.92 274.081 1151 194 1151C113.919 1151 49 1215.92 49 1296C49 1376.08 113.919 1441 194 1441ZM339 484C339 564.081 274.081 629 194 629C113.919 629 49 564.081 49 484C49 403.919 113.919 339 194 339C274.081 339 339 403.919 339 484ZM599 1035C679.081 1035 744 970.081 744 890C744 809.919 679.081 745 599 745C518.919 745 454 809.919 454 890C454 970.081 518.919 1035 599 1035ZM1034 600C1034 680.081 969.081 745 889 745C808.919 745 744 680.081 744 600C744 519.919 808.919 455 889 455C969.081 455 1034 519.919 1034 600ZM1179 1035C1259.08 1035 1324 970.081 1324 890C1324 809.919 1259.08 745 1179 745C1098.92 745 1034 809.919 1034 890C1034 970.081 1098.92 1035 1179 1035ZM1034 1180C1034 1260.08 969.081 1325 889 1325C808.919 1325 744 1260.08 744 1180C744 1099.92 808.919 1035 889 1035C969.081 1035 1034 1099.92 1034 1180ZM184 104C139.817 104 104 139.817 104 184V204C104 248.183 139.817 284 184 284H204C248.183 284 284 248.183 284 204V184C284 139.817 248.183 104 204 104H184ZM454 532C454 487.817 489.817 452 534 452H554C598.183 452 634 487.817 634 532V552C634 596.183 598.183 632 554 632H534C489.817 632 454 596.183 454 552V532ZM1576 104C1531.82 104 1496 139.817 1496 184V204C1496 248.183 1531.82 284 1576 284H1596C1640.18 284 1676 248.183 1676 204V184C1676 139.817 1640.18 104 1596 104H1576ZM1150 535C1150 490.817 1185.82 455 1230 455H1250C1294.18 455 1330 490.817 1330 535V555C1330 599.183 1294.18 635 1250 635H1230C1185.82 635 1150 599.183 1150 555V535ZM881 800C836.817 800 801 835.817 801 880V900C801 944.183 836.817 980 881 980H901C945.183 980 981 944.183 981 900V880C981 835.817 945.183 800 901 800H881ZM454 1225C454 1180.82 489.817 1145 534 1145H554C598.183 1145 634 1180.82 634 1225V1245C634 1289.18 598.183 1325 554 1325H534C489.817 1325 454 1289.18 454 1245V1225ZM1229 1145C1184.82 1145 1149 1180.82 1149 1225V1245C1149 1289.18 1184.82 1325 1229 1325H1249C1293.18 1325 1329 1289.18 1329 1245V1225C1329 1180.82 1293.18 1145 1249 1145H1229ZM104 1578C104 1533.82 139.817 1498 184 1498H204C248.183 1498 284 1533.82 284 1578V1598C284 1642.18 248.183 1678 204 1678H184C139.817 1678 104 1642.18 104 1598V1578ZM1576 1498C1531.82 1498 1496 1533.82 1496 1578V1598C1496 1642.18 1531.82 1678 1576 1678H1596C1640.18 1678 1676 1642.18 1676 1598V1578C1676 1533.82 1640.18 1498 1596 1498H1576Z" fill="url(#paint0_linear_17_72)"/>
<defs>
<linearGradient id="paint0_linear_17_72" x1="890" y1="0" x2="890" y2="1780" gradientUnits="userSpaceOnUse">
<stop offset="0.00520833" stop-color="#15EA54"/>
<stop offset="0.270833" stop-color="#0AE0EB" stop-opacity="0.76"/>
<stop offset="0.536458" stop-color="#4887DD" stop-opacity="0.9008"/>
<stop offset="0.765625" stop-color="#D080D9"/>
<stop offset="1" stop-color="#FBB7F0"/>
</linearGradient>
</defs>
</svg>
